# xmcd
#
# Track frame offsets:
# 150
# 24075
# 38377
# 59050
# 78442
# 102304
# 124373
# 144407
# 158218
# 171187
# 190867
# 203712
#
# Disc length: 2935 seconds
#
# Revision: 0
# Processed by: cddbd v1.4PL0 Copyright (c) Steve Scherf et al.
# Submitted via: Audion 3.0.2 (http://www.panic.com/audion/)
#
DISCID=9b0b750c
DTITLE=9-Fifty - Tales From Shermer
DYEAR=1900
DGENRE=
TTITLE0=nobody knows
TTITLE1=one way
TTITLE2=paula's song
TTITLE3=run
TTITLE4=come undone
TTITLE5=outshined
TTITLE6=never gonna let you go
TTITLE7=best i never had
TTITLE8=sanctify
TTITLE9=this time
TTITLE10=say a prayer
TTITLE11=carolyne
EXTD=
EXTT0=
EXTT1=
EXTT2=
EXTT3=
EXTT4=
EXTT5=
EXTT6=
EXTT7=
EXTT8=
EXTT9=
EXTT10=
EXTT11=
PLAYORDER=
